<svg xmlns="http://www.w3.org/2000/svg" width="400" height="225" viewBox="0 0 400 225" fill="none"><circle cx="205" cy="109" r="83" stroke="#cddced" stroke-dasharray="4 5"/><rect x="39" y="69" width="87" height="78" rx="10" fill="white" stroke="#c9d9ed"/><path d="M55 88h53m-53 9h40m-40 9h48" stroke="#b1c8e7" stroke-width="3" stroke-linecap="round"/><text x="82" y="131" text-anchor="middle" fill="#4773b1" font-family="Arial,sans-serif" font-size="10" font-weight="700">KNOWLEDGE</text><path d="M126 107h44m86 0h27" stroke="#9db9df" stroke-width="2"/><rect x="168" y="73" width="78" height="74" rx="14" fill="#326bd1"/><text x="207" y="111" text-anchor="middle" fill="white" font-family="Arial,sans-serif" font-size="24" font-weight="700">AIoT</text><text x="207" y="129" text-anchor="middle" fill="#dbe9ff" font-family="Arial,sans-serif" font-size="8">RAG + DEVICE</text><path d="M294 147c-4-12-14-20-13-28 1-8 8-8 13-2l6 8V72c0-9 11-9 11 0v35V54c0-9 11-9 11 0v53V65c0-9 11-9 11 0v45V79c0-9 11-9 11 0v53c0 14-8 27-14 33h-29z" fill="white" stroke="#93b1d7" stroke-width="2" stroke-linejoin="round"/><path d="M307 122h24m-24 9h24m-24 9h24" stroke="#78a0da" stroke-width="2"/><rect x="298" y="161" width="37" height="12" rx="3" fill="#c9ddf8"/><text x="82" y="178" text-anchor="middle" fill="#617faa" font-family="Microsoft YaHei,sans-serif" font-size="10">外部知识检索</text><text x="207" y="178" text-anchor="middle" fill="#617faa" font-family="Microsoft YaHei,sans-serif" font-size="10">语音与设备协同</text></svg>
