<svg xmlns="http://www.w3.org/2000/svg" width="400" height="225" viewBox="0 0 400 225" fill="none"><path d="M119 113h40m83 0h42" stroke="#a2bae0" stroke-width="2" stroke-dasharray="4 4"/><rect x="52" y="39" width="69" height="137" rx="12" fill="white" stroke="#b6cdee"/><rect x="61" y="58" width="51" height="99" rx="4" fill="#eff5ff"/><rect x="76" y="46" width="21" height="3" rx="1.5" fill="#b6cdee"/><rect x="69" y="73" width="35" height="37" rx="6" fill="#326dde"/><text x="86" y="99" text-anchor="middle" fill="white" font-family="Arial,sans-serif" font-size="25" font-weight="700">P</text><path d="M69 122h33m-33 8h23" stroke="#b6cdee" stroke-width="3" stroke-linecap="round"/><rect x="69" y="141" width="35" height="9" rx="3" fill="#cadeff"/><path d="M173 121c-18-1-17-24-1-26 1-21 33-29 44-8 22-6 36 31 14 34z" fill="#d1e1fc" stroke="#93b4e8"/><path d="M190 103h25m-25 7h17" stroke="#5080d6" stroke-width="2" stroke-linecap="round"/><rect x="281" y="72" width="77" height="67" rx="10" fill="white" stroke="#b6cdee"/><path d="M291 130h57m-47-11v-13c0-9 36-9 36 0v13m-36-9h36" stroke="#477bd7" stroke-width="2"/><circle cx="306" cy="119" r="3" fill="#477bd7"/><circle cx="332" cy="119" r="3" fill="#477bd7"/><path d="M312 157v-10a7 7 0 0 1 14 0" stroke="#497bd4" stroke-width="2"/><rect x="308" y="155" width="21" height="16" rx="4" fill="#326dde"/><circle cx="319" cy="162" r="2" fill="white"/><text x="87" y="196" text-anchor="middle" fill="#617faa" font-family="Microsoft YaHei,sans-serif" font-size="10">微信小程序</text><text x="203" y="159" text-anchor="middle" fill="#617faa" font-family="Microsoft YaHei,sans-serif" font-size="10">云平台</text><text x="319" y="196" text-anchor="middle" fill="#617faa" font-family="Microsoft YaHei,sans-serif" font-size="10">智能车位</text></svg>
